<svg xmlns="http://www.w3.org/2000/svg" xmlns:xlink="http://www.w3.org/1999/xlink" version="1.1" x="0px" y="0px" viewBox="0 0 512 640" style="enable-background:new 0 0 512 512;" xml:space="preserve"><path d="M225,274.4c2.6,2,3.1,5.8,1.1,8.4c-2,2.6-5.8,3.1-8.4,1.1l-30.2-23.1c-3.2-2.5-3.1-7.2,0.1-9.6l30.1-23.1  c2.6-2,6.4-1.5,8.4,1.1c2,2.6,1.5,6.4-1.1,8.4L201,256L225,274.4z M266,226.6c1.6-2.9,5.3-3.9,8.2-2.2c2.9,1.6,3.9,5.3,2.2,8.2  l-30.5,52.8c-1.7,2.9-5.3,3.9-8.2,2.2c-2.9-1.6-3.8-5.3-2.2-8.2L266,226.6z M294.2,283.9c-2.6,2-6.4,1.5-8.4-1.1  c-2-2.6-1.5-6.4,1.1-8.4l24-18.4l-24-18.4c-2.6-2-3.1-5.8-1.1-8.4c2-2.6,5.8-3.1,8.4-1.1l30.1,23.1c3.1,2.4,3.3,7.1,0.1,9.6  L294.2,283.9z M256,155.7c55.4,0,100.3,44.9,100.3,100.3c0,55.4-44.9,100.3-100.3,100.3c-55.4,0-100.3-44.9-100.3-100.3  C155.7,200.6,200.6,155.7,256,155.7L256,155.7z M318.4,193.6c-34.5-34.5-90.4-34.5-124.9,0c-34.5,34.5-34.5,90.4,0,124.8  c34.5,34.5,90.4,34.5,124.9,0C352.9,284,352.9,228.1,318.4,193.6L318.4,193.6z M232.1,94h47.7c3.3,0,6,2.7,6,6v26.2  c14.5,3.3,28.3,9.1,40.8,16.9l18.5-18.5c2.4-2.4,6.2-2.4,8.5,0l33.8,33.7c2.3,2.4,2.3,6.2,0,8.5l-18.5,18.5  c7.9,12.5,13.6,26.3,16.9,40.8h26.2c3.3,0,6,2.7,6,6v47.7c0,3.5-2.7,6.1-6.5,6h-25.7c-3.3,14.5-9.1,28.3-16.9,40.8l18.5,18.5  c2.3,2.4,2.3,6.2,0,8.5l-33.8,33.7c-2.3,2.4-6.1,2.4-8.5,0L326.7,369c-12.5,7.9-26.3,13.6-40.8,16.9v26.2c0,3.3-2.7,6-6,6h-47.7  c-3.3,0-6-2.7-6-6v-26.2c-14.5-3.3-28.3-9.1-40.8-16.9l-18.5,18.5c-2.3,2.4-6.1,2.4-8.5,0l-33.7-33.7c-2.4-2.4-2.4-6.2,0-8.5  l18.5-18.5c-7.9-12.5-13.6-26.3-16.9-40.8H99.9c-3.3,0-6-2.7-6-6v-47.7c0-3.3,2.7-6,6-6h26.2c3.3-14.5,9.1-28.3,16.9-40.8  l-18.5-18.5c-2.4-2.4-2.4-6.2,0-8.5l33.7-33.7c2.4-2.4,6.2-2.4,8.5,0l18.5,18.5c12.5-7.9,26.4-13.6,40.9-16.9V100  C226.1,96.7,228.8,94,232.1,94L232.1,94z M273.8,106h-35.7v24.7c0.2,2.9-1.9,5.6-4.9,6.2c-8.2,1.6-16.1,3.9-23.7,7.1  c-7.5,3.1-14.7,7-21.4,11.5c-2.4,1.8-5.8,1.7-7.9-0.5l-17.7-17.7l-25.3,25.3l17.7,17.7l0,0c2,2,2.4,5.2,0.7,7.6  c-4.6,6.8-8.6,14.1-11.7,21.7c-3.1,7.4-5.4,15.2-7,23.2c-0.3,3-2.9,5.3-6,5.3h-25.1v35.7H131v0c2.8,0,5.4,2,5.9,4.9  c1.6,8.2,3.9,16.1,7.1,23.6c3.1,7.5,7,14.7,11.5,21.4c1.8,2.4,1.7,5.8-0.5,7.9l-17.7,17.7l25.3,25.3l17.7-17.7h0  c2-2,5.2-2.4,7.6-0.7c6.8,4.6,14.1,8.6,21.7,11.7c7.4,3.1,15.2,5.4,23.3,7c3,0.3,5.3,2.9,5.3,6v25.1h35.7V381l0,0  c0-2.8,2-5.4,4.9-5.9c8.2-1.6,16.1-3.9,23.6-7.1c7.5-3.1,14.7-7,21.4-11.5c2.4-1.8,5.8-1.7,7.9,0.5l17.7,17.7l25.3-25.3L357,331.8  l0,0c-2-2-2.4-5.2-0.7-7.6c9.3-13.7,15.7-29.1,18.8-45.4l0,0c0.5-2.8,2.9-4.9,5.9-4.9h25.1v-35.7H381l0,0c-2.8,0-5.3-2-5.9-4.9  c-1.6-8.2-3.9-16.1-7.1-23.6c-3.1-7.5-7-14.7-11.5-21.4c-1.8-2.4-1.7-5.8,0.5-7.9l17.7-17.7l-25.3-25.3L331.7,155v0  c-2,2-5.2,2.4-7.6,0.7c-6.8-4.6-14.1-8.6-21.7-11.7c-7.4-3.1-15.2-5.4-23.2-7c-3-0.4-5.3-2.9-5.3-6V106z M117.5,88  c-2.5,2.1-6.3,1.8-8.4-0.7c-2.2-2.5-1.9-6.3,0.7-8.4c74.1-63.4,181.2-71.8,264.4-20.5c32.7,20.2,60,48.5,78.8,82.1  c0.1-3.3,2.8-6,6.1-5.9c3.3,0.1,5.9,2.8,5.8,6.1l-0.6,23.4c-0.1,4.7-5.4,7.4-9.2,4.8l-20.6-13.4c-2.8-1.8-3.5-5.5-1.8-8.3  c1.8-2.7,5.5-3.5,8.3-1.8l1.7,1.1C405.2,79.6,334.4,37,256,37C204.6,37,155.9,55.2,117.5,88L117.5,88z M253.9,476.1  c2.6,1.7,3.5,5.2,1.9,8c-1.6,2.8-5.3,3.8-8.2,2.2l-20.9-12c-4.2-2.4-3.9-8.4,0.3-10.5h0l22-11.1c2.9-1.5,6.5-0.3,8.1,2.6  c1.5,2.9,0.3,6.5-2.7,8.1l-1.7,0.9c0.9,0,2,0,3.4,0c132.9,0,233.1-120,210.3-250.5c-0.6-3.3,1.6-6.4,4.9-6.9  c3.3-0.6,6.3,1.6,6.9,4.9c24.1,137.8-81.8,264.6-222.1,264.6C255.4,476.1,254.8,476.1,253.9,476.1L253.9,476.1z M60.7,136.5  c-2.9,1.6-6.5,0.7-8.2-2.2c-1.6-2.9-0.7-6.5,2.2-8.2L77,113.3c4.1-2.4,9.2,0.8,9,5.5l0,0l-1.3,24.6c-0.2,3.3-3,5.8-6.3,5.7  c-3.3-0.2-5.8-3-5.7-6.3l0.1-2.1C29.8,212.3,32.7,302.9,80,371.5c24.4,35.4,59.2,63.1,99.9,78.6c3.1,1.2,4.6,4.6,3.5,7.7  c-1.2,3.1-4.6,4.6-7.7,3.5C89,428.3,30.5,344.8,30.5,250.6c0-40.8,10.9-80.1,31.3-114.6L60.7,136.5z"/><text x="0" y="527" fill="#000000" font-size="5px" font-weight="bold" font-family="'Helvetica Neue', Helvetica, Arial-Unicode, Arial, Sans-serif">Created by afian roc</text><text x="0" y="532" fill="#000000" font-size="5px" font-weight="bold" font-family="'Helvetica Neue', Helvetica, Arial-Unicode, Arial, Sans-serif">from the Noun Project</text></svg>